#!OML:ASF C:\ViconDB\ViconDB\414\Spring2016\041811\Spring2016.ASF
:FULLY-SPECIFIED
:DEGREES
320
root 9.85748 18.3728 -35.1762 -181.036 1.76723 -179.266
lowerback 0.991489 1.21566 -3.55606
upperback 1.44751 1.66098 -0.638764
thorax 0.84843 0.820006 1.33192
lowerneck -10.9859 -3.84436 -10.1195
upperneck 16.38 -6.86132 14.4079
head 7.67519 -3.00116 5.75039
rclavicle 1.81391e-015 1.63003e-014
rhumerus -38.0819 -21.6582 -83.3581
rradius 34.7499
rwrist 39.1864
rhand -34.3185 -14.2951
rfingers 7.12502
rthumb -7.48703 -44.1426
lclavicle 1.81391e-015 1.63003e-014
lhumerus -36.5056 -0.1906 88.3919
lradius 23.083
lwrist -36.0266
lhand -30.1352 16.2518
lfingers 7.12502
lthumb -3.44804 46.2036
rfemur 128.511 21.3022 -177.005
rtibia 51.0538
rfoot 28.4636 -76.7362
rtoes 1.03368e-014
lfemur -15.9595 -2.14638 -19.3682
ltibia 27.777
lfoot -13.8777 4.05252
ltoes 1.33186e-014
321
root 9.83376 18.3956 -35.3418 -181.048 1.53429 -179.512
lowerback 1.01505 1.06701 -3.82581
upperback 1.47576 1.46553 -0.678266
thorax 0.868843 0.720818 1.44311
lowerneck -11.0092 -3.78242 -10.0386
upperneck 16.2465 -6.75115 14.3693
head 7.61732 -2.94333 5.73242
rclavicle 4.02539e-015 7.55382e-015
rhumerus -38.5548 -22.0509 -83.1108
rradius 34.5038
rwrist 39.9623
rhand -34.4369 -14.5221
rfingers 7.12502
rthumb -7.60127 -44.3655
lclavicle 4.02539e-015 7.55382e-015
lhumerus -36.0687 -0.709326 88.5225
lradius 23.4227
lwrist -36.5741
lhand -30.425 16.7709
lfingers 7.12502
lthumb -3.72786 46.718
rfemur 128.525 21.7268 -177.121
rtibia 52.4883
rfoot 32.0098 -76.6077
rtoes -2.70347e-014
lfemur -14.9587 -2.6692 -19.8122
ltibia 27.11
lfoot -14.1948 4.30154
ltoes 2.26615e-014
322
root 9.80838 18.4143 -35.5049 -181.111 1.26973 -179.481
lowerback 1.05693 0.908385 -3.83835
upperback 1.57593 1.25485 -0.576655
thorax 0.956985 0.612366 1.55575
lowerneck -11.0813 -3.72935 -9.99778
upperneck 16.0954 -6.61351 14.2568
head 7.55807 -2.87421 5.69855
rclavicle -7.23079e-015 0
rhumerus -38.8426 -22.3749 -82.7709
rradius 34.1739
rwrist 40.5208
rhand -34.2497 -14.2393
rfingers 7.12502
rthumb -7.42057 -44.0891
lclavicle -7.23079e-015 0
lhumerus -35.422 -1.03711 88.6942
lradius 23.8152
lwrist -36.3206
lhand -30.297 16.8017
lfingers 7.12502
lthumb -3.60432 46.751
rfemur 128.794 22.1871 -176.889
rtibia 53.587
rfoot 33.6395 -76.5764
rtoes -5.48646e-014
lfemur -13.9625 -3.30934 -19.961
ltibia 26.5522
lfoot -14.6471 4.5766
ltoes 1.37161e-014
323
root 9.78406 18.4304 -35.6652 -181.141 1.05968 -179.193
lowerback 1.15737 0.767192 -3.5385
upperback 1.60121 1.05954 -0.451539
thorax 0.93961 0.51577 1.51587
lowerneck -11.1395 -3.66331 -9.99175
upperneck 16.0598 -6.51607 14.2889
head 7.54496 -2.82198 5.71832
rclavicle -1.16289e-014 -1.43125e-014
rhumerus -39.3272 -22.6874 -82.4414
rradius 34.0576
rwrist 40.992
rhand -34.1447 -14.1517
rfingers 7.12502
rthumb -7.31925 -44.0051
lclavicle -1.16289e-014 -1.43125e-014
lhumerus -34.8887 -1.74873 88.9504
lradius 24.2107
lwrist -35.6476
lhand -30.3861 16.7998
lfingers 7.12502
lthumb -3.69033 46.7476
rfemur 129.496 22.5185 -176.188
rtibia 54.3469
rfoot 35.1696 -76.0894
rtoes -1.35174e-013
lfemur -13.0665 -3.84264 -19.8176
ltibia 26.1108
lfoot -15.114 4.79369
ltoes 2.54444e-014
324
root 9.75967 18.4414 -35.823 -181.215 0.786444 -179.223
lowerback 1.32736 0.702716 -3.43905
upperback 1.60725 0.967769 -0.444527
thorax 0.85661 0.472566 1.46554
lowerneck -11.0073 -3.67855 -9.97536
upperneck 15.9139 -6.51611 14.2428
head 7.47181 -2.82858 5.6977
rclavicle 3.37934e-015 7.55382e-015
rhumerus -39.8821 -23.2102 -82.0088
rradius 33.8343
rwrist 41.5682
rhand -34.3378 -14.1863
rfingers 7.12502
rthumb -7.50567 -44.0332
lclavicle 3.37934e-015 7.55382e-015
lhumerus -34.3838 -2.52774 89.1866
lradius 24.5952
lwrist -35.5898
lhand -30.5277 17.0608
lfingers 7.12502
lthumb -3.8271 47.0062
rfemur 130.318 23.1493 -175.892
rtibia 54.8749
rfoot 34.5195 -75.9809
rtoes -5.725e-014
lfemur -12.1802 -4.66765 -20.0619
ltibia 25.7722
lfoot -15.6734 5.25545
ltoes 1.53064e-014
325
root 9.73929 18.4512 -35.9828 -181.263 0.511991 -179.185
lowerback 1.45138 0.524918 -3.52549
upperback 1.59324 0.721612 -0.318548
thorax 0.782702 0.348412 1.6435
lowerneck -10.9496 -3.58896 -9.93367
upperneck 15.9397 -6.39322 14.1686
head 7.4489 -2.77574 5.67939
rclavicle -5.46658e-015 -1.27222e-014
rhumerus -40.4796 -23.1107 -81.7337
rradius 33.8123
rwrist 41.5834
rhand -34.1105 -13.9356
rfingers 7.12502
rthumb -7.28619 -43.7902
lclavicle -5.46658e-015 -1.27222e-014
lhumerus -33.9042 -2.79672 89.3217
lradius 25.0097
lwrist -34.994
lhand -30.6661 16.6556
lfingers 7.12502
lthumb -3.9607 46.5985
rfemur 131.471 23.618 -175.391
rtibia 55.124
rfoot 33.7049 -75.5289
rtoes -8.42847e-014
lfemur -11.365 -5.4362 -20.237
ltibia 25.5092
lfoot -16.2256 5.7172
ltoes 3.4191e-014
